# xmcd
#
# Track frame offsets:
#	150
#	14598
#	30601
#
# Disc length: 589 seconds
#
# Revision: 0
# Processed by: cddbd v1.5.1PL2 Copyright (c) Steve Scherf et al.
# Submitted via: dBpowerAMP V4.0
#
DISCID=1c024b03
DTITLE=Pat Shortt - Jumbo Breakfast Roll
DYEAR=1900
DGENRE=Ballad
TTITLE0=The Jumbo Breakfast Roll
TTITLE1=The Jumbo Breakfast Roll Veggie mix
TTITLE2=The Jumbo Breakfast Roll Karaoke mix
EXTD=
EXTT0=
EXTT1=
EXTT2=
PLAYORDER=
